<svg width="24" height="24" viewBox="0 0 24 24" fill="none" xmlns="http://www.w3.org/2000/svg">
<path d="M14.4106 12.8548C16.0737 11.9818 17.2105 10.238 17.2105 8.225C17.2105 5.33938 14.8776 3 12 3C9.12237 3 6.78947 5.33938 6.78947 8.225C6.78947 10.238 7.92632 11.9818 9.58942 12.8548C5.79 13.9677 3 17.6343 3 22H21C21 17.6343 18.21 13.9677 14.4106 12.8548ZM7.73684 8.225C7.73684 5.86757 9.64911 3.95 12 3.95C14.3509 3.95 16.2632 5.86757 16.2632 8.225C16.2632 10.5824 14.3509 12.5 12 12.5C9.64911 12.5 7.73684 10.5824 7.73684 8.225ZM12 13.45C16.1376 13.45 19.5567 16.7812 20.0034 21.05H3.99663C4.44332 16.7812 7.86237 13.45 12 13.45Z" fill="currentColor" stroke="currentColor" stroke-width="0.5"></path>
</svg>