<svg width="1840" height="192" viewBox="0 0 1840 192" fill="none" xmlns="http://www.w3.org/2000/svg">
<g clip-path="url(#clip0_736_21928)">
<path d="M1224.63 99.1277H1295V95.483H1224.63V17.7306H1306.93V14.0859H1203.93V184.169H1311.07V180.525H1224.63V99.1277Z" fill="#F6F6F6"/>
<path d="M1119.91 60.0085C1119.91 28.1786 1090.93 14.0859 1068.28 14.0859H999.859V184.169H1020.56V105.931H1054.01L1100.91 184.169H1125.02L1077.66 105.159C1098.18 101.828 1119.91 87.5684 1119.91 60.0085ZM1020.56 17.7306H1061.22C1085.57 17.7306 1099.21 34.9819 1099.21 60.0085C1099.21 85.0351 1085.57 102.286 1061.22 102.286H1020.56V17.7306Z" fill="#F6F6F6"/>
<path d="M1372.67 17.7306H1394.83V180.525H1372.67V184.169H1437.68V180.525H1415.53V17.7306H1437.68V14.0859H1372.67V17.7306Z" fill="#F6F6F6"/>
<path d="M1821.91 14.0859V95.483H1736.68V14.0859H1715.98V184.169H1736.68V99.1277H1821.91V184.169H1842.6V14.0859H1821.91Z" fill="#F6F6F6"/>
<path d="M1584.06 15.2931C1610.36 15.2931 1630.09 29.8717 1637.64 51.4966H1641.29C1636.66 34.9742 1618.89 11.6484 1584.06 11.6484C1546.08 11.6484 1507.12 40.0767 1507.12 99.1199C1507.12 158.163 1546.08 186.591 1584.06 186.591C1618.89 186.591 1636.66 163.266 1641.29 146.743H1637.64C1630.09 168.368 1610.36 182.947 1584.06 182.947C1544.86 182.947 1529.03 135.566 1529.03 99.1199C1529.03 62.6735 1544.86 15.2931 1584.06 15.2931Z" fill="#F6F6F6"/>
<path d="M2.44141 17.7305H24.6001V180.522H2.44141V184.167H67.4566V180.522H45.2978V17.7305H67.4566V14.0859H2.44141V17.7305Z" fill="#F6F6F6"/>
<path d="M368.383 14.0859H366.435H364.487L306.289 184.169H310.185L329.141 128.771H399.837L418.789 184.169H440.704L382.506 14.0859H368.383ZM330.388 125.126L364.493 25.4548L398.59 125.126H330.388Z" fill="#F6F6F6"/>
<path d="M254.923 14.0859H138.284V17.7306H228.868L133.414 184.169H255.897V180.525H159.469L254.923 14.0859Z" fill="#F6F6F6"/>
<path d="M559.11 14.0859H557.162H555.213L497.016 184.169H500.912L519.868 128.771H590.564L609.515 184.169H631.431L573.233 14.0859H559.11ZM521.115 125.126L555.219 25.4548L589.317 125.126H521.115Z" fill="#F6F6F6"/>
<path d="M832.102 14.0859H827.475L765.067 95.483H730.803V14.0859H710.105V184.169H730.803V99.1277H762.614L816.761 184.169H841.355L778.044 84.7921L832.102 14.0859Z" fill="#F6F6F6"/>
</g>
<defs>
<clipPath id="clip0_736_21928">
<rect width="1840" height="192" fill="white"/>
</clipPath>
</defs>
</svg>
